<?xml version="1.0" encoding="UTF-8" standalone="no"?>
<svg
   viewBox="0 0 1081 1081"
   version="1.1"
   id="svg7"
   sodipodi:docname="C3.svg"
   inkscape:version="1.3.2 (091e20e, 2023-11-25, custom)"
   inkscape:export-filename="app-icon.png"
   inkscape:export-xdpi="68.26667"
   inkscape:export-ydpi="68.26667"
   xmlns:inkscape="http://www.inkscape.org/namespaces/inkscape"
   xmlns:sodipodi="http://sodipodi.sourceforge.net/DTD/sodipodi-0.dtd"
   xmlns="http://www.w3.org/2000/svg"
   xmlns:svg="http://www.w3.org/2000/svg">
  <sodipodi:namedview
     id="namedview7"
     pagecolor="#ffffff"
     bordercolor="#000000"
     borderopacity="0.25"
     inkscape:showpageshadow="2"
     inkscape:pageopacity="0.0"
     inkscape:pagecheckerboard="0"
     inkscape:deskcolor="#d1d1d1"
     inkscape:zoom="0.53180186"
     inkscape:cx="247.27255"
     inkscape:cy="472.9205"
     inkscape:window-width="1920"
     inkscape:window-height="1009"
     inkscape:window-x="1912"
     inkscape:window-y="-8"
     inkscape:window-maximized="1"
     inkscape:current-layer="svg7"
     showguides="true" />
  <defs
     id="defs1">
    <style
       id="style1">
      .cls-1 {
        fill: #4f378b;
      }

      .cls-1, .cls-2, .cls-3 {
        stroke-width: 0px;
      }

      .cls-2 {
        fill: #eaddff;
      }

      .cls-3 {
        fill: #d0bcff;
      }
    </style>
  </defs>
  <g
     id="_Шар_1"
     data-name="Шар 1"
     style="fill:#fed9d8;fill-opacity:1">
    <rect
       class="cls-3"
       x=".5"
       y=".48"
       width="1080"
       height="1080"
       id="rect1"
       style="fill:#e5bcbb;fill-opacity:1"
       inkscape:label="rect1" />
  </g>
  <g
     id="_Шар_2"
     data-name="Шар 2"
     style="fill:#fefefe;fill-opacity:1">
    <circle
       class="cls-2"
       cx="382.98001"
       cy="382.81"
       r="136.5"
       id="circle1"
       style="display:inline;fill:#feeceb;fill-opacity:1" />
    <circle
       class="cls-2"
       cx="698"
       cy="382.98001"
       r="136.5"
       id="circle2"
       style="display:inline;fill:#feeceb;fill-opacity:1" />
    <circle
       class="cls-2"
       cx="383.42999"
       cy="697.81"
       r="136.5"
       id="circle3"
       style="display:inline;fill:#feeceb;fill-opacity:1" />
    <circle
       class="cls-1"
       cx="698"
       cy="697.97998"
       r="136.5"
       id="circle4"
       style="display:inline;fill:#ac6263;fill-opacity:1" />
    <rect
       class="cls-2"
       x="614.86285"
       y="648.89459"
       width="165.27429"
       height="40.170834"
       rx="20.085417"
       ry="20.085417"
       id="rect4"
       style="fill:#feeceb;fill-opacity:1" />
    <rect
       class="cls-2"
       x="614.86285"
       y="706.89459"
       width="165.27429"
       height="40.170834"
       rx="20.085417"
       ry="20.085417"
       id="rect5"
       style="fill:#feeceb;fill-opacity:1"
       inkscape:label="rect5" />
  </g>
  <g
     id="_Шар_4"
     data-name="Шар 4"
     style="fill:#ac6263;fill-opacity:1">
    <path
       class="cls-1"
       d="M 366.89102,443.87677 V 394.66746 L 329.0055,335.92171 c -3.31456,-5.29424 -5.66756,-9.4233 -7.03637,-12.38717 -1.38012,-2.96388 -2.05887,-5.54312 -2.05887,-7.72643 0,-3.59737 1.39143,-6.697 4.18562,-9.31018 2.78287,-2.61318 6.22187,-3.91412 10.31699,-3.91412 4.29874,0 7.56805,1.22175 9.7853,3.65393 2.21725,2.43219 5.55443,7.28524 10.00024,14.54786 l 29.00521,47.09389 29.32197,-47.09389 c 1.76475,-2.896 3.24669,-5.32818 4.44581,-7.30787 1.19912,-1.97968 2.52268,-3.82362 3.97068,-5.55443 1.448,-1.73081 3.05437,-3.05437 4.81912,-3.97068 1.76475,-0.91631 3.91412,-1.38012 6.45943,-1.38012 3.94806,0 7.25131,1.28962 9.89843,3.86887 2.64712,2.57924 3.97068,5.55443 3.97068,8.94817 0,2.74894 -0.66744,5.50919 -2.01362,8.25812 -1.34619,2.74893 -3.63131,6.56124 -6.87799,11.42561 l -38.84708,59.58287 v 49.20932 c 0,6.42549 -1.48194,11.22199 -4.44581,14.38949 -2.96387,3.16749 -6.74224,4.76255 -11.3238,4.76255 -4.58156,0 -8.42781,-1.57243 -11.3238,-4.70599 -2.896,-3.13356 -4.344,-7.95268 -4.344,-14.44605 z"
       id="path5"
       style="fill:#ac6263;fill-opacity:1;stroke-width:0.904999;stroke-dasharray:none" />
    <path
       class="cls-1"
       d="m 697.46701,302.7525 c 16.08622,0 29.89865,3.26928 41.4373,9.78522 11.53864,6.52725 20.27181,15.80341 26.1995,27.8398 5.9277,12.03639 8.89155,26.16557 8.89155,42.38754 0,11.99114 -1.62899,22.89629 -4.86433,32.70414 -3.24666,9.80784 -8.11099,18.31476 -14.60431,25.50945 -6.49331,7.19468 -14.46855,12.70382 -23.9144,16.51609 -9.45716,3.81228 -20.28312,5.71276 -32.4892,5.71276 -12.20607,0 -22.99809,-1.95704 -32.60232,-5.87113 -9.59291,-3.91409 -17.60208,-9.43454 -24.02752,-16.56135 -6.42544,-7.1268 -11.26715,-15.7016 -14.54774,-25.71307 -3.2806,-10.02278 -4.9209,-20.84874 -4.9209,-32.4892 0,-11.64045 1.70818,-22.86235 5.13583,-32.80594 3.41635,-9.9436 8.38249,-18.41658 14.86449,-25.39633 6.49331,-6.99106 14.38936,-12.33051 23.71078,-16.02966 9.3101,-3.69915 19.8985,-5.55439 31.75389,-5.55439 z m 44.66133,79.79763 c 0,-11.35765 -1.83261,-21.19943 -5.50914,-29.52535 -3.66521,-8.32592 -8.91416,-14.62693 -15.71291,-18.8917 -6.81006,-4.26477 -14.62693,-6.40282 -23.43928,-6.40282 -6.27838,0 -12.08164,1.18781 -17.40978,3.54078 -5.32814,2.36429 -9.90966,5.80326 -13.75587,10.31691 -3.84622,4.51364 -6.87794,10.28296 -9.10648,17.30796 -2.21723,7.025 -3.33716,14.90974 -3.33716,23.65422 0,8.74448 1.10862,16.79891 3.33716,23.9144 2.21723,7.12681 5.36208,13.03188 9.42322,17.72652 4.06115,4.69465 8.71055,8.20149 13.97081,10.53184 5.26027,2.33036 11.02959,3.49553 17.30797,3.49553 8.04311,0 15.4301,-2.0136 22.17229,-6.0295 6.74219,-4.02722 12.10426,-10.22641 16.08622,-18.63152 3.98197,-8.39379 5.98426,-18.73332 5.98426,-31.00727 z"
       id="path6"
       style="fill:#ac6263;fill-opacity:1" />
    <path
       class="cls-1"
       d="m 318.1813,711.24836 v -74.61595 c 0,-6.3462 1.42535,-11.10868 4.28736,-14.28743 2.86201,-3.17876 6.6177,-4.76248 11.26705,-4.76248 4.64936,0 8.7331,1.58372 11.5838,4.76248 2.86201,3.17875 4.28736,7.94123 4.28736,14.28743 v 76.31279 c 0,8.67654 0.97286,15.92773 2.90726,21.75356 1.93441,5.82584 5.38466,10.33945 10.31682,13.55214 4.93217,3.21269 11.8553,4.81904 20.74677,4.81904 12.27384,0 20.95038,-3.25794 26.04092,-9.78514 5.07922,-6.5272 7.62449,-16.42546 7.62449,-29.68348 v -76.94628 c 0,-6.42539 1.41404,-11.19918 4.2308,-14.344 2.81676,-3.13351 6.59507,-4.70592 11.32361,-4.70592 4.72855,0 8.5521,1.57241 11.48199,4.70592 2.92989,3.14482 4.38917,7.91861 4.38917,14.344 v 74.61594 c 0,12.1381 -1.17648,22.26261 -3.54075,30.37353 -2.36427,8.11093 -6.82132,15.23768 -13.38245,21.38026 -5.64484,5.22628 -12.20598,9.02721 -19.68341,11.42542 -7.47743,2.39821 -16.23315,3.59731 -26.24454,3.59731 -11.92316,0 -22.19473,-1.2896 -30.8034,-3.8688 -8.60866,-2.57921 -15.6336,-6.56114 -21.0635,-11.95711 -5.42991,-5.39597 -9.42315,-12.30778 -11.95711,-20.74676 -2.54526,-8.42766 -3.81224,-18.50693 -3.81224,-30.21516 z"
       id="path7"
       style="fill:#ac6263;fill-opacity:1" />
  </g>
</svg>
